<svg width="1200" height="800" viewBox="0 0 1200 800" fill="none" xmlns="http://www.w3.org/2000/svg">
  <rect width="1200" height="800" fill="#4682B4"/>
  <path d="M0 600 L1200 600 L1200 800 L0 800 Z" fill="#3A6D99"/>
  <path d="M0 650 L1200 650 L1200 800 L0 800 Z" fill="#2E5A80"/>
  <path d="M0 700 L1200 700 L1200 800 L0 800 Z" fill="#224970"/>
  <path d="M0 750 L1200 750 L1200 800 L0 800 Z" fill="#163860"/>
  
  <!-- Sun -->
  <circle cx="900" cy="200" r="80" fill="#FFF9C4"/>
  <circle cx="900" cy="200" r="70" fill="#FFF59D"/>
  
  <!-- Mountains -->
  <path d="M0 400 L250 200 L500 350 L750 180 L1000 300 L1200 250 L1200 600 L0 600 Z" fill="#2E5A80"/>
  
  <!-- Beach/Island -->
  <path d="M400 600 C450 550, 500 580, 550 560 C600 540, 650 570, 700 550 C750 530, 800 560, 850 540 L850 600 Z" fill="#DEB887"/>
  
  <!-- Boat -->
  <path d="M600 500 L580 540 L680 540 L660 500 Z" fill="#8D6E63"/>
  <rect x="625" y="470" width="10" height="30" fill="#5D4037"/>
  <path d="M635 470 L635 500 L650 485 Z" fill="#FFFFFF"/>
  
  <!-- Marina -->
  <rect x="100" y="570" width="200" height="30" fill="#8D6E63"/>
  <rect x="120" y="530" width="20" height="40" fill="#5D4037"/>
  <rect x="260" y="530" width="20" height="40" fill="#5D4037"/>
  <path d="M100 570 L300 570 L280 550 L120 550 Z" fill="#A1887F"/>
</svg> 