<?xml version="1.0" encoding="UTF-8"?>
<svg xmlns="http://www.w3.org/2000/svg" viewBox="0 0 100 100">
  <!-- Marina 188 Favicon - Simplified for favicon use -->
  <rect width="100" height="100" fill="#ffffff" rx="10" ry="10"/>
  <g transform="translate(5, 20) scale(0.45)">
    <g fill="#2A2A2A">
      <path d="M11 20.3h3.6L26 48.7h-4l-3-7.4H6.3l-3 7.4h-4L11 20.3zm6.8 17.5L12 24.1l-6 13.7h11.8zM57.6 48.7l-9.3-14-2.3-3.8v17.9h-3.4V20.3h3L57 34.7l2.1 3.7V20.3h3.4v28.4h-4.9zM82.2 48.7l-9.3-14-2.3-3.8v17.9h-3.4V20.3h3l11.5 14.4 2.1 3.7V20.3h3.4v28.4h-5zM103.7 48.7h-3.4V20.3h3.4v28.4zM133.3 48.7l-14.7-21.6v21.6h-3.4V20.3h4.9l14.5 21.1V20.3h3.4v28.4h-4.7zM160.3 48.7l-9.3-14-2.3-3.8v17.9h-3.4V20.3h3l11.5 14.4 2.1 3.7V20.3h3.4v28.4h-5zM174.7 48.7h-3.4V20.3h3.4v28.4z"/>
      <path d="M139 69c3.5 0 6.6-.3 9.2-.9 2.6-.6 4.8-1.5 6.5-2.7 1.7-1.2 3-2.8 3.8-4.7.8-1.9 1.3-4.2 1.3-6.9 0-2.5-.4-4.6-1.3-6.5-.9-1.8-2.1-3.4-3.7-4.6-1.6-1.2-3.6-2.1-6-2.7-2.4-.6-5.1-.9-8.2-.9h-8.9v30h7.3z"/>
      <path d="M182 69c3.5 0 6.6-.3 9.2-.9 2.6-.6 4.8-1.5 6.5-2.7 1.7-1.2 3-2.8 3.8-4.7.8-1.9 1.3-4.2 1.3-6.9 0-2.5-.4-4.6-1.3-6.5-.9-1.8-2.1-3.4-3.7-4.6-1.6-1.2-3.6-2.1-6-2.7-2.4-.6-5.1-.9-8.2-.9h-8.9v30h7.3z"/>
    </g>
  </g>
</svg> 